<svg xmlns="http://www.w3.org/2000/svg" viewBox="0 0 96 96" role="img" aria-labelledby="title desc">
  <title id="title">POD Hub Logo</title>
  <desc id="desc">Rounded square logo with layered stripes and PH monogram</desc>
  <defs>
    <linearGradient id="bg" x1="0" y1="0" x2="1" y2="1">
      <stop offset="0" stop-color="#0f766e" />
      <stop offset="1" stop-color="#f97316" />
    </linearGradient>
  </defs>
  <rect x="6" y="6" width="84" height="84" rx="22" fill="url(#bg)" />
  <path d="M18 58c14-16 28-18 42-8 8 6 14 7 18 6" fill="none" stroke="#ffffff" stroke-width="7" stroke-linecap="round" opacity="0.35" />
  <path d="M24 36h10c7 0 11 4 11 10s-4 10-11 10h-4v10h-6V36Zm6 6v8h4c3 0 5-1 5-4s-2-4-5-4h-4Zm22-6h6v11h8V36h6v30h-6V53h-8v13h-6V36Z" fill="#ffffff" />
</svg>
