<svg xmlns="http://www.w3.org/2000/svg" viewBox="0 0 256 256" role="img" aria-labelledby="title desc">
  <title id="title">POD S Function Icon</title>
  <desc id="desc">Receipt paper with colorful S symbol</desc>
  <defs>
    <linearGradient id="paper" x1="0" y1="0" x2="0" y2="1">
      <stop offset="0" stop-color="#ffffff" />
      <stop offset="1" stop-color="#f2f2f2" />
    </linearGradient>
    <linearGradient id="edge" x1="0" y1="0" x2="1" y2="1">
      <stop offset="0" stop-color="#2f2f2f" />
      <stop offset="1" stop-color="#111111" />
    </linearGradient>
    <linearGradient id="c1" x1="0" y1="0" x2="1" y2="1">
      <stop offset="0" stop-color="#f43f5e" />
      <stop offset="1" stop-color="#db2777" />
    </linearGradient>
    <linearGradient id="c2" x1="0" y1="0" x2="1" y2="1">
      <stop offset="0" stop-color="#fb923c" />
      <stop offset="1" stop-color="#f97316" />
    </linearGradient>
    <linearGradient id="c3" x1="0" y1="0" x2="1" y2="1">
      <stop offset="0" stop-color="#facc15" />
      <stop offset="1" stop-color="#fde047" />
    </linearGradient>
    <linearGradient id="c4" x1="0" y1="0" x2="1" y2="1">
      <stop offset="0" stop-color="#22c55e" />
      <stop offset="1" stop-color="#65a30d" />
    </linearGradient>
    <linearGradient id="c5" x1="0" y1="0" x2="1" y2="1">
      <stop offset="0" stop-color="#06b6d4" />
      <stop offset="1" stop-color="#2563eb" />
    </linearGradient>
  </defs>

  <path d="M44 20h168a12 12 0 0 1 12 12v180a12 12 0 0 1-12 12h-24c-7 0-12-5-12-12v-6H80v6c0 7-5 12-12 12H44a12 12 0 0 1-12-12V32a12 12 0 0 1 12-12Z" fill="url(#edge)" />
  <path d="M52 26h152a10 10 0 0 1 10 10v154c0 10-8 18-18 18H96c-7 0-12 5-12 12v2H52a10 10 0 0 1-10-10V36a10 10 0 0 1 10-10Z" fill="url(#paper)" />
  <rect x="74" y="46" width="108" height="7" rx="3" fill="#2f2f2f" />
  <rect x="70" y="178" width="116" height="7" rx="3" fill="#2f2f2f" />
  <rect x="74" y="194" width="108" height="7" rx="3" fill="#2f2f2f" />

  <path d="M152 72c-10-7-28-6-39 2-9 6-10 18-2 25 6 5 14 7 23 10 17 5 34 12 35 31 1 21-18 35-42 36-16 1-31-4-41-14l14-15c6 6 16 10 28 10 12 0 22-6 22-15 0-8-7-11-24-16-19-6-33-14-34-32-1-19 14-35 38-36 15-1 28 3 38 11Z" fill="url(#c1)" />
  <path d="M154 76c-8-5-22-4-31 2-7 5-8 12-2 18 5 4 11 6 19 8 17 5 37 12 38 35 1 24-20 40-46 41-18 1-35-5-46-16l15-16c7 7 19 12 31 12 14 0 26-8 26-19 0-10-8-14-26-19-19-6-31-14-32-29-1-16 12-30 34-31 14-1 27 3 37 10Z" fill="none" />
  <path d="M118 89a24 24 0 0 0-8 3c-7 5-8 12-2 18 5 4 11 6 19 8 4 1 8 2 12 4-5 1-10 3-14 6-6 5-7 12-3 18 2 4 6 7 10 9-6 0-12-2-17-4-3-1-5-3-8-5l-12 13c10 10 24 14 40 14 5 0 10-1 15-2-7-2-13-5-17-10-6-7-8-16-4-24 3-7 9-11 16-14-9-4-16-8-20-14-6-8-4-18 3-24 3-2 6-4 10-5-5-1-13-1-20 1Z" fill="url(#c5)" opacity="0.95" />
  <path d="M120 90c-4 1-7 2-10 5-7 6-9 16-3 24 4 6 11 10 20 14-7 3-13 7-16 14-4 8-2 17 4 24 4 5 10 8 17 10 4-1 8-3 12-5 8-5 12-12 12-20 0-6-2-10-6-14-4-3-10-6-18-8-8-2-14-4-19-8-6-6-5-13 2-18 3-2 6-3 8-3-1-1-2-1-3-1Z" fill="url(#c4)" opacity="0.9" />
  <path d="M122 90c3 2 6 4 9 7 5 5 6 12 3 18-2 4-6 8-11 10 8 2 15 5 20 9 6 5 8 12 7 20-1 8-6 15-13 20 23-3 40-18 39-40-1-23-21-30-38-35-8-2-14-4-19-8-6-6-5-13 2-18 3-2 6-3 10-4-3-1-6-1-9-1Z" fill="url(#c3)" opacity="0.92" />
  <path d="M123 72c6 2 12 5 17 9 5 5 7 11 6 18-1 6-5 11-10 15 9 2 17 5 24 10 8 6 12 14 12 24 0 7-2 14-7 20 9-7 14-17 13-28-1-23-21-30-38-35-8-2-14-4-19-8-6-6-5-13 2-18 3-2 6-3 10-4-3-1-7-2-10-3Z" fill="url(#c2)" opacity="0.88" />
</svg>
